<svg xmlns="http://www.w3.org/2000/svg" xmlns:xlink="http://www.w3.org/1999/xlink" id="body_1" preserveAspectRatio="xMinYMin meet" viewBox="0 0 793 1123"><defs><clipPath id="1"><path id="" clip-rule="evenodd" transform="matrix(1 0 0 1 0 0)" d="M0 842L0 0L0 0L595 0L595 0L595 842L595 842L0 842z" /></clipPath><clipPath id="2"><path id="" clip-rule="evenodd" transform="matrix(1 0 0 1 0 0)" d="M18 861L614 861L614 861L614 18L614 18L18 18z" /></clipPath><clipPath id="3"><path id="" clip-rule="evenodd" transform="matrix(1 0 0 1 0 0)" d="M-2.57698E+08 2.576981E+08L2.57698E+08 2.576981E+08L2.57698E+08 2.576981E+08L2.57698E+08 -2.57698E+08L2.57698E+08 -2.57698E+08L-2.57698E+08 -2.57698E+08z" /></clipPath><clipPath id="4"><path id="" clip-rule="evenodd" transform="matrix(1 0 0 1 0 0)" d="M109.08 43.56L506.04 43.56L506.04 43.56L506.04 67.56L506.04 67.56L109.08 67.56z" /></clipPath><clipPath id="5"><path id="" clip-rule="evenodd" transform="matrix(1 0 0 1 0 0)" d="M109.08 77.64001L506.04 77.64001L506.04 77.64001L506.04 89.64001L506.04 89.64001L109.08 89.64001z" /></clipPath><clipPath id="6"><path id="" clip-rule="evenodd" transform="matrix(1 0 0 1 0 0)" d="M109 90L507 90L507 90L507 77L507 77L109 77z" /></clipPath><clipPath id="7"><path id="" clip-rule="evenodd" transform="matrix(1 0 0 1 0 0)" d="M109.08 77.64001L506.04 77.64001L506.04 77.64001L506.04 89.64001L506.04 89.64001L109.08 89.64001z" /></clipPath><clipPath id="8"><path id="" clip-rule="evenodd" transform="matrix(1 0 0 1 0 0)" d="M109 90L507 90L507 90L507 77L507 77L109 77z" /></clipPath><clipPath id="9"><path id="" clip-rule="evenodd" transform="matrix(1 0 0 1 0 0)" d="M109.08 77.64001L506.04 77.64001L506.04 77.64001L506.04 89.64001L506.04 89.64001L109.08 89.64001z" /></clipPath><clipPath id="10"><path id="" clip-rule="evenodd" transform="matrix(1 0 0 1 0 0)" d="M109 90L507 90L507 90L507 77L507 77L109 77z" /></clipPath><clipPath id="11"><path id="" clip-rule="evenodd" transform="matrix(1 0 0 1 0 0)" d="M109.08 77.64001L506.04 77.64001L506.04 77.64001L506.04 89.64001L506.04 89.64001L109.08 89.64001z" /></clipPath><clipPath id="12"><path id="" clip-rule="evenodd" transform="matrix(1 0 0 1 0 0)" d="M109 90L507 90L507 90L507 77L507 77L109 77z" /></clipPath><clipPath id="13"><path id="" clip-rule="evenodd" transform="matrix(1 0 0 1 0 0)" d="M109.08 77.64001L506.04 77.64001L506.04 77.64001L506.04 89.64001L506.04 89.64001L109.08 89.64001z" /></clipPath><clipPath id="14"><path id="" clip-rule="evenodd" transform="matrix(1 0 0 1 0 0)" d="M109 90L507 90L507 90L507 77L507 77L109 77z" /></clipPath><clipPath id="15"><path id="" clip-rule="evenodd" transform="matrix(1 0 0 1 0 0)" d="M109.08 77.64001L506.04 77.64001L506.04 77.64001L506.04 89.64001L506.04 89.64001L109.08 89.64001z" /></clipPath><clipPath id="16"><path id="" clip-rule="evenodd" transform="matrix(1 0 0 1 0 0)" d="M109 90L507 90L507 90L507 77L507 77L109 77z" /></clipPath><clipPath id="17"><path id="" clip-rule="evenodd" transform="matrix(1 0 0 1 0 0)" d="M109.08 77.64001L506.04 77.64001L506.04 77.64001L506.04 89.64001L506.04 89.64001L109.08 89.64001z" /></clipPath><clipPath id="18"><path id="" clip-rule="evenodd" transform="matrix(1 0 0 1 0 0)" d="M109 90L507 90L507 90L507 77L507 77L109 77z" /></clipPath><clipPath id="19"><path id="" clip-rule="evenodd" transform="matrix(1 0 0 1 0 0)" d="M109.08 77.64001L506.04 77.64001L506.04 77.64001L506.04 89.64001L506.04 89.64001L109.08 89.64001z" /></clipPath><clipPath id="20"><path id="" clip-rule="evenodd" transform="matrix(1 0 0 1 0 0)" d="M109 90L507 90L507 90L507 77L507 77L109 77z" /></clipPath><clipPath id="21"><path id="" clip-rule="evenodd" transform="matrix(1 0 0 1 0 0)" d="M109.08 77.64001L506.04 77.64001L506.04 77.64001L506.04 89.64001L506.04 89.64001L109.08 89.64001z" /></clipPath><clipPath id="22"><path id="" clip-rule="evenodd" transform="matrix(1 0 0 1 0 0)" d="M109 90L507 90L507 90L507 77L507 77L109 77z" /></clipPath><clipPath id="23"><path id="" clip-rule="evenodd" transform="matrix(1 0 0 1 0 0)" d="M109.08 77.64001L506.04 77.64001L506.04 77.64001L506.04 89.64001L506.04 89.64001L109.08 89.64001z" /></clipPath><clipPath id="24"><path id="" clip-rule="evenodd" transform="matrix(1 0 0 1 0 0)" d="M109 90L507 90L507 90L507 77L507 77L109 77z" /></clipPath><clipPath id="25"><path id="" clip-rule="evenodd" transform="matrix(1 0 0 1 0 0)" d="M109.08 77.64001L506.04 77.64001L506.04 77.64001L506.04 89.64001L506.04 89.64001L109.08 89.64001z" /></clipPath><clipPath id="26"><path id="" clip-rule="evenodd" transform="matrix(1 0 0 1 0 0)" d="M109 90L507 90L507 90L507 77L507 77L109 77z" /></clipPath><clipPath id="27"><path id="" clip-rule="evenodd" transform="matrix(1 0 0 1 0 0)" d="M109.08 77.64001L506.04 77.64001L506.04 77.64001L506.04 89.64001L506.04 89.64001L109.08 89.64001z" /></clipPath><clipPath id="28"><path id="" clip-rule="evenodd" transform="matrix(1 0 0 1 0 0)" d="M109 90L507 90L507 90L507 77L507 77L109 77z" /></clipPath><clipPath id="29"><path id="" clip-rule="evenodd" transform="matrix(1 0 0 1 0 0)" d="M109.08 77.64001L506.04 77.64001L506.04 77.64001L506.04 89.64001L506.04 89.64001L109.08 89.64001z" /></clipPath><clipPath id="30"><path id="" clip-rule="evenodd" transform="matrix(1 0 0 1 0 0)" d="M109 90L507 90L507 90L507 77L507 77L109 77z" /></clipPath><clipPath id="31"><path id="" clip-rule="evenodd" transform="matrix(1 0 0 1 0 0)" d="M109.08 77.64001L506.04 77.64001L506.04 77.64001L506.04 89.64001L506.04 89.64001L109.08 89.64001z" /></clipPath><clipPath id="32"><path id="" clip-rule="evenodd" transform="matrix(1 0 0 1 0 0)" d="M109 90L507 90L507 90L507 77L507 77L109 77z" /></clipPath><clipPath id="33"><path id="" clip-rule="evenodd" transform="matrix(1 0 0 1 0 0)" d="M109.08 77.64001L506.04 77.64001L506.04 77.64001L506.04 89.64001L506.04 89.64001L109.08 89.64001z" /></clipPath><clipPath id="34"><path id="" clip-rule="evenodd" transform="matrix(1 0 0 1 0 0)" d="M109 90L507 90L507 90L507 77L507 77L109 77z" /></clipPath><clipPath id="35"><path id="" clip-rule="evenodd" transform="matrix(1 0 0 1 0 0)" d="M109.08 77.64001L506.04 77.64001L506.04 77.64001L506.04 89.64001L506.04 89.64001L109.08 89.64001z" /></clipPath><clipPath id="36"><path id="" clip-rule="evenodd" transform="matrix(1 0 0 1 0 0)" d="M109 90L507 90L507 90L507 77L507 77L109 77z" /></clipPath><clipPath id="37"><path id="" clip-rule="evenodd" transform="matrix(1 0 0 1 0 0)" d="M109.08 77.64001L506.04 77.64001L506.04 77.64001L506.04 89.64001L506.04 89.64001L109.08 89.64001z" /></clipPath><clipPath id="38"><path id="" clip-rule="evenodd" transform="matrix(1 0 0 1 0 0)" d="M109 90L507 90L507 90L507 77L507 77L109 77z" /></clipPath><clipPath id="39"><path id="" clip-rule="evenodd" transform="matrix(1 0 0 1 0 0)" d="M109.08 77.64001L506.04 77.64001L506.04 77.64001L506.04 89.64001L506.04 89.64001L109.08 89.64001z" /></clipPath><clipPath id="40"><path id="" clip-rule="evenodd" transform="matrix(1 0 0 1 0 0)" d="M109.08 77.64001L506.04 77.64001L506.04 77.64001L506.04 89.64001L506.04 89.64001L109.08 89.64001z" /></clipPath><clipPath id="41"><path id="" clip-rule="evenodd" transform="matrix(1 0 0 1 0 0)" d="M109 90L507 90L507 90L507 77L507 77L109 77z" /></clipPath><clipPath id="42"><path id="" clip-rule="evenodd" transform="matrix(1 0 0 1 0 0)" d="M109.08 77.64001L506.04 77.64001L506.04 77.64001L506.04 89.64001L506.04 89.64001L109.08 89.64001z" /></clipPath><clipPath id="43"><path id="" clip-rule="evenodd" transform="matrix(1 0 0 1 0 0)" d="M109 90L507 90L507 90L507 77L507 77L109 77z" /></clipPath><clipPath id="44"><path id="" clip-rule="evenodd" transform="matrix(1 0 0 1 0 0)" d="M109.08 77.64001L506.04 77.64001L506.04 77.64001L506.04 89.64001L506.04 89.64001L109.08 89.64001z" /></clipPath><clipPath id="45"><path id="" clip-rule="evenodd" transform="matrix(1 0 0 1 0 0)" d="M109 90L507 90L507 90L507 77L507 77L109 77z" /></clipPath><clipPath id="46"><path id="" clip-rule="evenodd" transform="matrix(1 0 0 1 0 0)" d="M109.08 77.64001L506.04 77.64001L506.04 77.64001L506.04 89.64001L506.04 89.64001L109.08 89.64001z" /></clipPath><clipPath id="47"><path id="" clip-rule="evenodd" transform="matrix(1 0 0 1 0 0)" d="M109 90L507 90L507 90L507 77L507 77L109 77z" /></clipPath><clipPath id="48"><path id="" clip-rule="evenodd" transform="matrix(1 0 0 1 0 0)" d="M109.08 77.64001L506.04 77.64001L506.04 77.64001L506.04 89.64001L506.04 89.64001L109.08 89.64001z" /></clipPath><clipPath id="49"><path id="" clip-rule="evenodd" transform="matrix(1 0 0 1 0 0)" d="M109 90L507 90L507 90L507 77L507 77L109 77z" /></clipPath><clipPath id="50"><path id="" clip-rule="evenodd" transform="matrix(1 0 0 1 0 0)" d="M-2.57698E+08 2.576981E+08L2.57698E+08 2.576981E+08L2.57698E+08 2.576981E+08L2.57698E+08 -2.57698E+08L2.57698E+08 -2.57698E+08L-2.57698E+08 -2.57698E+08z" /></clipPath><clipPath id="51"><path id="" clip-rule="evenodd" transform="matrix(1 0 0 1 0 0)" d="M109.08 43.56L506.04 43.56L506.04 43.56L506.04 67.56L506.04 67.56L109.08 67.56z" /></clipPath><clipPath id="52"><path id="" clip-rule="evenodd" transform="matrix(1 0 0 1 0 0)" d="M109.08 77.64001L506.04 77.64001L506.04 77.64001L506.04 89.64001L506.04 89.64001L109.08 89.64001z" /></clipPath><clipPath id="53"><path id="" clip-rule="evenodd" transform="matrix(1 0 0 1 0 0)" d="M109 90L507 90L507 90L507 77L507 77L109 77z" /></clipPath><clipPath id="54"><path id="" clip-rule="evenodd" transform="matrix(1 0 0 1 0 0)" d="M109.08 77.64001L506.04 77.64001L506.04 77.64001L506.04 89.64001L506.04 89.64001L109.08 89.64001z" /></clipPath><clipPath id="55"><path id="" clip-rule="evenodd" transform="matrix(1 0 0 1 0 0)" d="M109 90L507 90L507 90L507 77L507 77L109 77z" /></clipPath><clipPath id="56"><path id="" clip-rule="evenodd" transform="matrix(1 0 0 1 0 0)" d="M109.08 77.64001L506.04 77.64001L506.04 77.64001L506.04 89.64001L506.04 89.64001L109.08 89.64001z" /></clipPath><clipPath id="57"><path id="" clip-rule="evenodd" transform="matrix(1 0 0 1 0 0)" d="M109 90L507 90L507 90L507 77L507 77L109 77z" /></clipPath><clipPath id="58"><path id="" clip-rule="evenodd" transform="matrix(1 0 0 1 0 0)" d="M109.08 77.64001L506.04 77.64001L506.04 77.64001L506.04 89.64001L506.04 89.64001L109.08 89.64001z" /></clipPath><clipPath id="59"><path id="" clip-rule="evenodd" transform="matrix(1 0 0 1 0 0)" d="M109 90L507 90L507 90L507 77L507 77L109 77z" /></clipPath><clipPath id="60"><path id="" clip-rule="evenodd" transform="matrix(1 0 0 1 0 0)" d="M109.08 77.64001L506.04 77.64001L506.04 77.64001L506.04 89.64001L506.04 89.64001L109.08 89.64001z" /></clipPath><clipPath id="61"><path id="" clip-rule="evenodd" transform="matrix(1 0 0 1 0 0)" d="M109 90L507 90L507 90L507 77L507 77L109 77z" /></clipPath><clipPath id="62"><path id="" clip-rule="evenodd" transform="matrix(1 0 0 1 0 0)" d="M109.08 77.64001L506.04 77.64001L506.04 77.64001L506.04 89.64001L506.04 89.64001L109.08 89.64001z" /></clipPath><clipPath id="63"><path id="" clip-rule="evenodd" transform="matrix(1 0 0 1 0 0)" d="M109 90L507 90L507 90L507 77L507 77L109 77z" /></clipPath><clipPath id="64"><path id="" clip-rule="evenodd" transform="matrix(1 0 0 1 0 0)" d="M109.08 77.64001L506.04 77.64001L506.04 77.64001L506.04 89.64001L506.04 89.64001L109.08 89.64001z" /></clipPath><clipPath id="65"><path id="" clip-rule="evenodd" transform="matrix(1 0 0 1 0 0)" d="M109 90L507 90L507 90L507 77L507 77L109 77z" /></clipPath><clipPath id="66"><path id="" clip-rule="evenodd" transform="matrix(1 0 0 1 0 0)" d="M109.08 77.64001L506.04 77.64001L506.04 77.64001L506.04 89.64001L506.04 89.64001L109.08 89.64001z" /></clipPath><clipPath id="67"><path id="" clip-rule="evenodd" transform="matrix(1 0 0 1 0 0)" d="M109 90L507 90L507 90L507 77L507 77L109 77z" /></clipPath><clipPath id="68"><path id="" clip-rule="evenodd" transform="matrix(1 0 0 1 0 0)" d="M109.08 77.64001L506.04 77.64001L506.04 77.64001L506.04 89.64001L506.04 89.64001L109.08 89.64001z" /></clipPath><clipPath id="69"><path id="" clip-rule="evenodd" transform="matrix(1 0 0 1 0 0)" d="M109 90L507 90L507 90L507 77L507 77L109 77z" /></clipPath><clipPath id="70"><path id="" clip-rule="evenodd" transform="matrix(1 0 0 1 0 0)" d="M109.08 77.64001L506.04 77.64001L506.04 77.64001L506.04 89.64001L506.04 89.64001L109.08 89.64001z" /></clipPath><clipPath id="71"><path id="" clip-rule="evenodd" transform="matrix(1 0 0 1 0 0)" d="M109 90L507 90L507 90L507 77L507 77L109 77z" /></clipPath><clipPath id="72"><path id="" clip-rule="evenodd" transform="matrix(1 0 0 1 0 0)" d="M109.08 77.64001L506.04 77.64001L506.04 77.64001L506.04 89.64001L506.04 89.64001L109.08 89.64001z" /></clipPath><clipPath id="73"><path id="" clip-rule="evenodd" transform="matrix(1 0 0 1 0 0)" d="M109 90L507 90L507 90L507 77L507 77L109 77z" /></clipPath><clipPath id="74"><path id="" clip-rule="evenodd" transform="matrix(1 0 0 1 0 0)" d="M109.08 77.64001L506.04 77.64001L506.04 77.64001L506.04 89.64001L506.04 89.64001L109.08 89.64001z" /></clipPath><clipPath id="75"><path id="" clip-rule="evenodd" transform="matrix(1 0 0 1 0 0)" d="M109 90L507 90L507 90L507 77L507 77L109 77z" /></clipPath><clipPath id="76"><path id="" clip-rule="evenodd" transform="matrix(1 0 0 1 0 0)" d="M109.08 77.64001L506.04 77.64001L506.04 77.64001L506.04 89.64001L506.04 89.64001L109.08 89.64001z" /></clipPath><clipPath id="77"><path id="" clip-rule="evenodd" transform="matrix(1 0 0 1 0 0)" d="M109 90L507 90L507 90L507 77L507 77L109 77z" /></clipPath><clipPath id="78"><path id="" clip-rule="evenodd" transform="matrix(1 0 0 1 0 0)" d="M109.08 77.64001L506.04 77.64001L506.04 77.64001L506.04 89.64001L506.04 89.64001L109.08 89.64001z" /></clipPath><clipPath id="79"><path id="" clip-rule="evenodd" transform="matrix(1 0 0 1 0 0)" d="M109 90L507 90L507 90L507 77L507 77L109 77z" /></clipPath><clipPath id="80"><path id="" clip-rule="evenodd" transform="matrix(1 0 0 1 0 0)" d="M109.08 77.64001L506.04 77.64001L506.04 77.64001L506.04 89.64001L506.04 89.64001L109.08 89.64001z" /></clipPath><clipPath id="81"><path id="" clip-rule="evenodd" transform="matrix(1 0 0 1 0 0)" d="M109 90L507 90L507 90L507 77L507 77L109 77z" /></clipPath><clipPath id="82"><path id="" clip-rule="evenodd" transform="matrix(1 0 0 1 0 0)" d="M109.08 77.64001L506.04 77.64001L506.04 77.64001L506.04 89.64001L506.04 89.64001L109.08 89.64001z" /></clipPath><clipPath id="83"><path id="" clip-rule="evenodd" transform="matrix(1 0 0 1 0 0)" d="M109 90L507 90L507 90L507 77L507 77L109 77z" /></clipPath><clipPath id="84"><path id="" clip-rule="evenodd" transform="matrix(1 0 0 1 0 0)" d="M109.08 77.64001L506.04 77.64001L506.04 77.64001L506.04 89.64001L506.04 89.64001L109.08 89.64001z" /></clipPath><clipPath id="85"><path id="" clip-rule="evenodd" transform="matrix(1 0 0 1 0 0)" d="M109 90L507 90L507 90L507 77L507 77L109 77z" /></clipPath><clipPath id="86"><path id="" clip-rule="evenodd" transform="matrix(1 0 0 1 0 0)" d="M109.08 77.64001L506.04 77.64001L506.04 77.64001L506.04 89.64001L506.04 89.64001L109.08 89.64001z" /></clipPath><clipPath id="87"><path id="" clip-rule="evenodd" transform="matrix(1 0 0 1 0 0)" d="M109.08 77.64001L506.04 77.64001L506.04 77.64001L506.04 89.64001L506.04 89.64001L109.08 89.64001z" /></clipPath><clipPath id="88"><path id="" clip-rule="evenodd" transform="matrix(1 0 0 1 0 0)" d="M109 90L507 90L507 90L507 77L507 77L109 77z" /></clipPath><clipPath id="89"><path id="" clip-rule="evenodd" transform="matrix(1 0 0 1 0 0)" d="M109.08 77.64001L506.04 77.64001L506.04 77.64001L506.04 89.64001L506.04 89.64001L109.08 89.64001z" /></clipPath><clipPath id="90"><path id="" clip-rule="evenodd" transform="matrix(1 0 0 1 0 0)" d="M109 90L507 90L507 90L507 77L507 77L109 77z" /></clipPath><clipPath id="91"><path id="" clip-rule="evenodd" transform="matrix(1 0 0 1 0 0)" d="M109.08 77.64001L506.04 77.64001L506.04 77.64001L506.04 89.64001L506.04 89.64001L109.08 89.64001z" /></clipPath><clipPath id="92"><path id="" clip-rule="evenodd" transform="matrix(1 0 0 1 0 0)" d="M109 90L507 90L507 90L507 77L507 77L109 77z" /></clipPath><clipPath id="93"><path id="" clip-rule="evenodd" transform="matrix(1 0 0 1 0 0)" d="M109.08 77.64001L506.04 77.64001L506.04 77.64001L506.04 89.64001L506.04 89.64001L109.08 89.64001z" /></clipPath><clipPath id="94"><path id="" clip-rule="evenodd" transform="matrix(1 0 0 1 0 0)" d="M109 90L507 90L507 90L507 77L507 77L109 77z" /></clipPath><clipPath id="95"><path id="" clip-rule="evenodd" transform="matrix(1 0 0 1 0 0)" d="M109.08 77.64001L506.04 77.64001L506.04 77.64001L506.04 89.64001L506.04 89.64001L109.08 89.64001z" /></clipPath><clipPath id="96"><path id="" clip-rule="evenodd" transform="matrix(1 0 0 1 0 0)" d="M109 90L507 90L507 90L507 77L507 77L109 77z" /></clipPath><clipPath id="97"><path id="" clip-rule="evenodd" transform="matrix(1 0 0 1 0 0)" d="M-2.57698E+08 2.576981E+08L2.57698E+08 2.576981E+08L2.57698E+08 2.576981E+08L2.57698E+08 -2.57698E+08L2.57698E+08 -2.57698E+08L-2.57698E+08 -2.57698E+08z" /></clipPath><clipPath id="98"><path id="" clip-rule="evenodd" transform="matrix(1 0 0 1 0 0)" d="M109.08 43.56L506.04 43.56L506.04 43.56L506.04 67.56L506.04 67.56L109.08 67.56z" /></clipPath><clipPath id="99"><path id="" clip-rule="evenodd" transform="matrix(1 0 0 1 0 0)" d="M109.08 77.64001L506.04 77.64001L506.04 77.64001L506.04 89.64001L506.04 89.64001L109.08 89.64001z" /></clipPath><clipPath id="100"><path id="" clip-rule="evenodd" transform="matrix(1 0 0 1 0 0)" d="M109 90L507 90L507 90L507 77L507 77L109 77z" /></clipPath><clipPath id="101"><path id="" clip-rule="evenodd" transform="matrix(1 0 0 1 0 0)" d="M109.08 77.64001L506.04 77.64001L506.04 77.64001L506.04 89.64001L506.04 89.64001L109.08 89.64001z" /></clipPath><clipPath id="102"><path id="" clip-rule="evenodd" transform="matrix(1 0 0 1 0 0)" d="M109 90L507 90L507 90L507 77L507 77L109 77z" /></clipPath><clipPath id="103"><path id="" clip-rule="evenodd" transform="matrix(1 0 0 1 0 0)" d="M109.08 77.64001L506.04 77.64001L506.04 77.64001L506.04 89.64001L506.04 89.64001L109.08 89.64001z" /></clipPath><clipPath id="104"><path id="" clip-rule="evenodd" transform="matrix(1 0 0 1 0 0)" d="M109 90L507 90L507 90L507 77L507 77L109 77z" /></clipPath><clipPath id="105"><path id="" clip-rule="evenodd" transform="matrix(1 0 0 1 0 0)" d="M109.08 77.64001L506.04 77.64001L506.04 77.64001L506.04 89.64001L506.04 89.64001L109.08 89.64001z" /></clipPath><clipPath id="106"><path id="" clip-rule="evenodd" transform="matrix(1 0 0 1 0 0)" d="M109 90L507 90L507 90L507 77L507 77L109 77z" /></clipPath><clipPath id="107"><path id="" clip-rule="evenodd" transform="matrix(1 0 0 1 0 0)" d="M109.08 77.64001L506.04 77.64001L506.04 77.64001L506.04 89.64001L506.04 89.64001L109.08 89.64001z" /></clipPath><clipPath id="108"><path id="" clip-rule="evenodd" transform="matrix(1 0 0 1 0 0)" d="M109 90L507 90L507 90L507 77L507 77L109 77z" /></clipPath><clipPath id="109"><path id="" clip-rule="evenodd" transform="matrix(1 0 0 1 0 0)" d="M109.08 77.64001L506.04 77.64001L506.04 77.64001L506.04 89.64001L506.04 89.64001L109.08 89.64001z" /></clipPath><clipPath id="110"><path id="" clip-rule="evenodd" transform="matrix(1 0 0 1 0 0)" d="M109 90L507 90L507 90L507 77L507 77L109 77z" /></clipPath><clipPath id="111"><path id="" clip-rule="evenodd" transform="matrix(1 0 0 1 0 0)" d="M109.08 77.64001L506.04 77.64001L506.04 77.64001L506.04 89.64001L506.04 89.64001L109.08 89.64001z" /></clipPath><clipPath id="112"><path id="" clip-rule="evenodd" transform="matrix(1 0 0 1 0 0)" d="M109 90L507 90L507 90L507 77L507 77L109 77z" /></clipPath><clipPath id="113"><path id="" clip-rule="evenodd" transform="matrix(1 0 0 1 0 0)" d="M109.08 77.64001L506.04 77.64001L506.04 77.64001L506.04 89.64001L506.04 89.64001L109.08 89.64001z" /></clipPath><clipPath id="114"><path id="" clip-rule="evenodd" transform="matrix(1 0 0 1 0 0)" d="M109 90L507 90L507 90L507 77L507 77L109 77z" /></clipPath><clipPath id="115"><path id="" clip-rule="evenodd" transform="matrix(1 0 0 1 0 0)" d="M109.08 77.64001L506.04 77.64001L506.04 77.64001L506.04 89.64001L506.04 89.64001L109.08 89.64001z" /></clipPath><clipPath id="116"><path id="" clip-rule="evenodd" transform="matrix(1 0 0 1 0 0)" d="M109 90L507 90L507 90L507 77L507 77L109 77z" /></clipPath><clipPath id="117"><path id="" clip-rule="evenodd" transform="matrix(1 0 0 1 0 0)" d="M109.08 77.64001L506.04 77.64001L506.04 77.64001L506.04 89.64001L506.04 89.64001L109.08 89.64001z" /></clipPath><clipPath id="118"><path id="" clip-rule="evenodd" transform="matrix(1 0 0 1 0 0)" d="M109 90L507 90L507 90L507 77L507 77L109 77z" /></clipPath><clipPath id="119"><path id="" clip-rule="evenodd" transform="matrix(1 0 0 1 0 0)" d="M109.08 77.64001L506.04 77.64001L506.04 77.64001L506.04 89.64001L506.04 89.64001L109.08 89.64001z" /></clipPath><clipPath id="120"><path id="" clip-rule="evenodd" transform="matrix(1 0 0 1 0 0)" d="M109 90L507 90L507 90L507 77L507 77L109 77z" /></clipPath><clipPath id="121"><path id="" clip-rule="evenodd" transform="matrix(1 0 0 1 0 0)" d="M109.08 77.64001L506.04 77.64001L506.04 77.64001L506.04 89.64001L506.04 89.64001L109.08 89.64001z" /></clipPath><clipPath id="122"><path id="" clip-rule="evenodd" transform="matrix(1 0 0 1 0 0)" d="M109 90L507 90L507 90L507 77L507 77L109 77z" /></clipPath><clipPath id="123"><path id="" clip-rule="evenodd" transform="matrix(1 0 0 1 0 0)" d="M109.08 77.64001L506.04 77.64001L506.04 77.64001L506.04 89.64001L506.04 89.64001L109.08 89.64001z" /></clipPath><clipPath id="124"><path id="" clip-rule="evenodd" transform="matrix(1 0 0 1 0 0)" d="M109 90L507 90L507 90L507 77L507 77L109 77z" /></clipPath><clipPath id="125"><path id="" clip-rule="evenodd" transform="matrix(1 0 0 1 0 0)" d="M109.08 77.64001L506.04 77.64001L506.04 77.64001L506.04 89.64001L506.04 89.64001L109.08 89.64001z" /></clipPath><clipPath id="126"><path id="" clip-rule="evenodd" transform="matrix(1 0 0 1 0 0)" d="M109 90L507 90L507 90L507 77L507 77L109 77z" /></clipPath><clipPath id="127"><path id="" clip-rule="evenodd" transform="matrix(1 0 0 1 0 0)" d="M109.08 77.64001L506.04 77.64001L506.04 77.64001L506.04 89.64001L506.04 89.64001L109.08 89.64001z" /></clipPath><clipPath id="128"><path id="" clip-rule="evenodd" transform="matrix(1 0 0 1 0 0)" d="M109 90L507 90L507 90L507 77L507 77L109 77z" /></clipPath><clipPath id="129"><path id="" clip-rule="evenodd" transform="matrix(1 0 0 1 0 0)" d="M109.08 77.64001L506.04 77.64001L506.04 77.64001L506.04 89.64001L506.04 89.64001L109.08 89.64001z" /></clipPath><clipPath id="130"><path id="" clip-rule="evenodd" transform="matrix(1 0 0 1 0 0)" d="M109 90L507 90L507 90L507 77L507 77L109 77z" /></clipPath><clipPath id="131"><path id="" clip-rule="evenodd" transform="matrix(1 0 0 1 0 0)" d="M109.08 77.64001L506.04 77.64001L506.04 77.64001L506.04 89.64001L506.04 89.64001L109.08 89.64001z" /></clipPath><clipPath id="132"><path id="" clip-rule="evenodd" transform="matrix(1 0 0 1 0 0)" d="M109 90L507 90L507 90L507 77L507 77L109 77z" /></clipPath><clipPath id="133"><path id="" clip-rule="evenodd" transform="matrix(1 0 0 1 0 0)" d="M109.08 77.64001L506.04 77.64001L506.04 77.64001L506.04 89.64001L506.04 89.64001L109.08 89.64001z" /></clipPath><clipPath id="134"><path id="" clip-rule="evenodd" transform="matrix(1 0 0 1 0 0)" d="M109.08 77.64001L506.04 77.64001L506.04 77.64001L506.04 89.64001L506.04 89.64001L109.08 89.64001z" /></clipPath><clipPath id="135"><path id="" clip-rule="evenodd" transform="matrix(1 0 0 1 0 0)" d="M109 90L507 90L507 90L507 77L507 77L109 77z" /></clipPath><clipPath id="136"><path id="" clip-rule="evenodd" transform="matrix(1 0 0 1 0 0)" d="M109.08 77.64001L506.04 77.64001L506.04 77.64001L506.04 89.64001L506.04 89.64001L109.08 89.64001z" /></clipPath><clipPath id="137"><path id="" clip-rule="evenodd" transform="matrix(1 0 0 1 0 0)" d="M109 90L507 90L507 90L507 77L507 77L109 77z" /></clipPath><clipPath id="138"><path id="" clip-rule="evenodd" transform="matrix(1 0 0 1 0 0)" d="M109.08 77.64001L506.04 77.64001L506.04 77.64001L506.04 89.64001L506.04 89.64001L109.08 89.64001z" /></clipPath><clipPath id="139"><path id="" clip-rule="evenodd" transform="matrix(1 0 0 1 0 0)" d="M109 90L507 90L507 90L507 77L507 77L109 77z" /></clipPath><clipPath id="140"><path id="" clip-rule="evenodd" transform="matrix(1 0 0 1 0 0)" d="M109.08 77.64001L506.04 77.64001L506.04 77.64001L506.04 89.64001L506.04 89.64001L109.08 89.64001z" /></clipPath><clipPath id="141"><path id="" clip-rule="evenodd" transform="matrix(1 0 0 1 0 0)" d="M109 90L507 90L507 90L507 77L507 77L109 77z" /></clipPath><clipPath id="142"><path id="" clip-rule="evenodd" transform="matrix(1 0 0 1 0 0)" d="M109.08 77.64001L506.04 77.64001L506.04 77.64001L506.04 89.64001L506.04 89.64001L109.08 89.64001z" /></clipPath><clipPath id="143"><path id="" clip-rule="evenodd" transform="matrix(1 0 0 1 0 0)" d="M109 90L507 90L507 90L507 77L507 77L109 77z" /></clipPath></defs><g transform="matrix(1.333333 0 0 1.333333 0 0)"><g clip-path="url(#1)"><g clip-path="url(#2)"></g><g clip-path="url(#3)"><path id="616" transform="matrix(1 0 0 -1 0 842)" d="M84 796L95 796L95 785L84 785z" stroke="none" fill="#00A3DA" fill-rule="nonzero" /><path id="617" transform="matrix(1 0 0 -1 0 842)" d="M72 796L83 796L83 785L72 785z" stroke="none" fill="#FF4013" fill-rule="nonzero" /><path id="618" transform="matrix(1 0 0 -1 0 842)" d="M60 796L71 796L71 785L60 785z" stroke="none" fill="#FDC700" fill-rule="nonzero" /></g><g clip-path="url(#4)"></g><g clip-path="url(#5)"><g clip-path="url(#6)"></g></g><g clip-path="url(#7)"><g clip-path="url(#8)"></g></g><g clip-path="url(#9)"><g clip-path="url(#10)"></g></g><g clip-path="url(#11)"><g clip-path="url(#12)"></g></g><g clip-path="url(#13)"><g clip-path="url(#14)"></g></g><g clip-path="url(#15)"><g clip-path="url(#16)"></g></g><g clip-path="url(#17)"><g clip-path="url(#18)"></g></g><g clip-path="url(#19)"><g clip-path="url(#20)"></g></g><g clip-path="url(#21)"><g clip-path="url(#22)"></g></g><g clip-path="url(#23)"><g clip-path="url(#24)"></g></g><g clip-path="url(#25)"><g clip-path="url(#26)"></g></g><g clip-path="url(#27)"><g clip-path="url(#28)"></g></g><g clip-path="url(#29)"><g clip-path="url(#30)"></g></g><g clip-path="url(#31)"><g clip-path="url(#32)"></g></g><g clip-path="url(#33)"><g clip-path="url(#34)"></g></g><g clip-path="url(#35)"><g clip-path="url(#36)"></g></g><g clip-path="url(#37)"><g clip-path="url(#38)"></g></g><g clip-path="url(#39)"><path id="655" transform="matrix(1 0 0 -1 0 842)" d="M398.4 753.92L462.48 753.92L462.48 753.44L398.4 753.44z" stroke="none" fill="#000000" fill-rule="nonzero" /></g><g clip-path="url(#40)"><g clip-path="url(#41)"></g></g><g clip-path="url(#42)"><g clip-path="url(#43)"></g></g><g clip-path="url(#44)"><g clip-path="url(#45)"></g></g><g clip-path="url(#46)"><g clip-path="url(#47)"></g></g><g clip-path="url(#48)"><g clip-path="url(#49)"></g></g><g clip-path="url(#50)"><path id="662" transform="matrix(1 0 0 -1 0 842)" d="M84 796L95 796L95 785L84 785z" stroke="none" fill="#00A3D9" fill-rule="nonzero" /><path id="663" transform="matrix(1 0 0 -1 0 842)" d="M72 796L83 796L83 785L72 785z" stroke="none" fill="#FF4012" fill-rule="nonzero" /><path id="664" transform="matrix(1 0 0 -1 0 842)" d="M60 796L71 796L71 785L60 785z" stroke="none" fill="#FDC700" fill-rule="nonzero" /></g><g clip-path="url(#51)"></g><g clip-path="url(#52)"><g clip-path="url(#53)"></g></g><g clip-path="url(#54)"><g clip-path="url(#55)"></g></g><g clip-path="url(#56)"><g clip-path="url(#57)"></g></g><g clip-path="url(#58)"><g clip-path="url(#59)"></g></g><g clip-path="url(#60)"><g clip-path="url(#61)"></g></g><g clip-path="url(#62)"><g clip-path="url(#63)"></g></g><g clip-path="url(#64)"><g clip-path="url(#65)"></g></g><g clip-path="url(#66)"><g clip-path="url(#67)"></g></g><g clip-path="url(#68)"><g clip-path="url(#69)"></g></g><g clip-path="url(#70)"><g clip-path="url(#71)"></g></g><g clip-path="url(#72)"><g clip-path="url(#73)"></g></g><g clip-path="url(#74)"><g clip-path="url(#75)"></g></g><g clip-path="url(#76)"><g clip-path="url(#77)"></g></g><g clip-path="url(#78)"><g clip-path="url(#79)"></g></g><g clip-path="url(#80)"><g clip-path="url(#81)"></g></g><g clip-path="url(#82)"><g clip-path="url(#83)"></g></g><g clip-path="url(#84)"><g clip-path="url(#85)"></g></g><g clip-path="url(#86)"><path id="701" transform="matrix(1 0 0 -1 0 842)" d="M398.4 753.92L462.48 753.92L462.48 753.44L398.4 753.44z" stroke="none" fill="#000000" fill-rule="nonzero" /></g><g clip-path="url(#87)"><g clip-path="url(#88)"></g></g><g clip-path="url(#89)"><g clip-path="url(#90)"></g></g><g clip-path="url(#91)"><g clip-path="url(#92)"></g></g><g clip-path="url(#93)"><g clip-path="url(#94)"></g></g><g clip-path="url(#95)"><g clip-path="url(#96)"></g></g><g clip-path="url(#97)"><path id="708" transform="matrix(1 0 0 -1 0 842)" d="M84 796L95 796L95 785L84 785z" stroke="none" fill="#00A3D9" fill-rule="nonzero" /><path id="709" transform="matrix(1 0 0 -1 0 842)" d="M72 796L83 796L83 785L72 785z" stroke="none" fill="#FF4012" fill-rule="nonzero" /><path id="710" transform="matrix(1 0 0 -1 0 842)" d="M60 796L71 796L71 785L60 785z" stroke="none" fill="#FDC700" fill-rule="nonzero" /></g><g clip-path="url(#98)"></g><g clip-path="url(#99)"><g clip-path="url(#100)"></g></g><g clip-path="url(#101)"><g clip-path="url(#102)"></g></g><g clip-path="url(#103)"><g clip-path="url(#104)"></g></g><g clip-path="url(#105)"><g clip-path="url(#106)"></g></g><g clip-path="url(#107)"><g clip-path="url(#108)"></g></g><g clip-path="url(#109)"><g clip-path="url(#110)"></g></g><g clip-path="url(#111)"><g clip-path="url(#112)"></g></g><g clip-path="url(#113)"><g clip-path="url(#114)"></g></g><g clip-path="url(#115)"><g clip-path="url(#116)"></g></g><g clip-path="url(#117)"><g clip-path="url(#118)"></g></g><g clip-path="url(#119)"><g clip-path="url(#120)"></g></g><g clip-path="url(#121)"><g clip-path="url(#122)"></g></g><g clip-path="url(#123)"><g clip-path="url(#124)"></g></g><g clip-path="url(#125)"><g clip-path="url(#126)"></g></g><g clip-path="url(#127)"><g clip-path="url(#128)"></g></g><g clip-path="url(#129)"><g clip-path="url(#130)"></g></g><g clip-path="url(#131)"><g clip-path="url(#132)"></g></g><g clip-path="url(#133)"><path id="747" transform="matrix(1 0 0 -1 0 842)" d="M398.4 753.92L462.48 753.92L462.48 753.44L398.4 753.44z" stroke="none" fill="#000000" fill-rule="nonzero" /></g><g clip-path="url(#134)"><g clip-path="url(#135)"></g></g><g clip-path="url(#136)"><g clip-path="url(#137)"></g></g><g clip-path="url(#138)"><g clip-path="url(#139)"></g></g><g clip-path="url(#140)"><g clip-path="url(#141)"></g></g><g clip-path="url(#142)"><g clip-path="url(#143)"></g></g></g></g></svg>